<svg aria-hidden="true" style="width:0;height:0;position:absolute;overflow:hidden" xmlns="http://www.w3.org/2000/svg"><defs><symbol id="icon-film" viewBox="0 0 30 28"><path d="M6 25v-2c0-.547-.453-1-1-1H3c-.547 0-1 .453-1 1v2c0 .547.453 1 1 1h2c.547 0 1-.453 1-1zm0-6v-2c0-.547-.453-1-1-1H3c-.547 0-1 .453-1 1v2c0 .547.453 1 1 1h2c.547 0 1-.453 1-1zm0-6v-2c0-.547-.453-1-1-1H3c-.547 0-1 .453-1 1v2c0 .547.453 1 1 1h2c.547 0 1-.453 1-1zm16 12v-8c0-.547-.453-1-1-1H9c-.547 0-1 .453-1 1v8c0 .547.453 1 1 1h12c.547 0 1-.453 1-1zM6 7V5c0-.547-.453-1-1-1H3c-.547 0-1 .453-1 1v2c0 .547.453 1 1 1h2c.547 0 1-.453 1-1zm22 18v-2c0-.547-.453-1-1-1h-2c-.547 0-1 .453-1 1v2c0 .547.453 1 1 1h2c.547 0 1-.453 1-1zm-6-12V5c0-.547-.453-1-1-1H9c-.547 0-1 .453-1 1v8c0 .547.453 1 1 1h12c.547 0 1-.453 1-1zm6 6v-2c0-.547-.453-1-1-1h-2c-.547 0-1 .453-1 1v2c0 .547.453 1 1 1h2c.547 0 1-.453 1-1zm0-6v-2c0-.547-.453-1-1-1h-2c-.547 0-1 .453-1 1v2c0 .547.453 1 1 1h2c.547 0 1-.453 1-1zm0-6V5c0-.547-.453-1-1-1h-2c-.547 0-1 .453-1 1v2c0 .547.453 1 1 1h2c.547 0 1-.453 1-1zm2-2.5v21c0 1.375-1.125 2.5-2.5 2.5h-25A2.507 2.507 0 0 1 0 25.5v-21C0 3.125 1.125 2 2.5 2h25C28.875 2 30 3.125 30 4.5z"/></symbol><symbol id="moon" viewBox="0 0 23 28"><path d="M19.719 20.359c-.562.094-1.141.141-1.719.141-5.797 0-10.5-4.703-10.5-10.5 0-1.984.578-3.922 1.625-5.578A9.952 9.952 0 0 0 2 14c0 5.516 4.484 10 10 10 3.016 0 5.844-1.375 7.719-3.641zm3.172-1.328A12.035 12.035 0 0 1 12 26C5.391 26 0 20.609 0 14A11.95 11.95 0 0 1 11.547 2.016a.976.976 0 0 1 .953.609c.172.391.063.844-.234 1.125A8.372 8.372 0 0 0 9.5 10c0 4.688 3.813 8.5 8.5 8.5a8.352 8.352 0 0 0 3.563-.797 1 1 0 0 1 1.328 1.328z"/></symbol><symbol id="sun" viewBox="0 0 24 24"><path d="M12 8.016q1.641 0 2.813 1.172t1.172 2.813-1.172 2.813T12 15.986t-2.813-1.172-1.172-2.813 1.172-2.813T12 8.016zM12 18q2.484 0 4.242-1.758T18 12t-1.758-4.242T12 6 7.758 7.758 6 12t1.758 4.242T12 18zm8.016-9.328L23.297 12l-3.281 3.328v4.688h-4.688L12 23.297l-3.328-3.281H3.984v-4.688L.703 12l3.281-3.328V3.984h4.688L12 .703l3.328 3.281h4.688v4.688z"/></symbol></defs></svg>